<mxfile>
    <diagram id="B9imWvU3-mCyOA17thxm" name="Page-1">
        <mxGraphModel dx="301" dy="230" grid="1" gridSize="10" guides="1" tooltips="1" connect="1" arrows="1" fold="1" page="1" pageScale="1" pageWidth="850" pageHeight="1100" math="0" shadow="0">
            <root>
                <mxCell id="0"/>
                <mxCell id="1" parent="0"/>
                <mxCell id="186" value="" style="rounded=0;whiteSpace=wrap;html=1;strokeWidth=4;fillColor=none;dashed=1;" vertex="1" parent="1">
                    <mxGeometry x="10" y="1250" width="830" height="150" as="geometry"/>
                </mxCell>
                <mxCell id="180" value="" style="rounded=0;whiteSpace=wrap;html=1;strokeWidth=4;fillColor=none;dashed=1;" vertex="1" parent="1">
                    <mxGeometry x="10" y="1050" width="830" height="150" as="geometry"/>
                </mxCell>
                <mxCell id="175" value="" style="rounded=0;whiteSpace=wrap;html=1;strokeWidth=4;fillColor=none;dashed=1;" vertex="1" parent="1">
                    <mxGeometry x="10" y="850" width="830" height="150" as="geometry"/>
                </mxCell>
                <mxCell id="167" value="" style="rounded=0;whiteSpace=wrap;html=1;strokeWidth=4;fillColor=none;dashed=1;" vertex="1" parent="1">
                    <mxGeometry x="10" y="450" width="830" height="150" as="geometry"/>
                </mxCell>
                <mxCell id="168" value="" style="rounded=0;whiteSpace=wrap;html=1;strokeWidth=4;fillColor=none;dashed=1;" vertex="1" parent="1">
                    <mxGeometry x="10" y="650" width="830" height="150" as="geometry"/>
                </mxCell>
                <mxCell id="166" value="" style="rounded=0;whiteSpace=wrap;html=1;strokeWidth=4;fillColor=none;dashed=1;" vertex="1" parent="1">
                    <mxGeometry x="10" y="250" width="830" height="150" as="geometry"/>
                </mxCell>
                <mxCell id="148" value="" style="rounded=0;whiteSpace=wrap;html=1;strokeWidth=4;fillColor=none;" vertex="1" parent="1">
                    <mxGeometry x="200" y="250" width="160" height="1190" as="geometry"/>
                </mxCell>
                <mxCell id="142" value="" style="shape=actor;whiteSpace=wrap;html=1;" vertex="1" parent="1">
                    <mxGeometry x="240" y="280" width="80" height="120" as="geometry"/>
                </mxCell>
                <mxCell id="146" value="" style="shape=actor;whiteSpace=wrap;html=1;" vertex="1" parent="1">
                    <mxGeometry x="240" y="480" width="80" height="120" as="geometry"/>
                </mxCell>
                <mxCell id="147" value="" style="shape=actor;whiteSpace=wrap;html=1;" vertex="1" parent="1">
                    <mxGeometry x="240" y="680" width="80" height="120" as="geometry"/>
                </mxCell>
                <mxCell id="149" value="&lt;font style=&quot;font-size: 24px&quot;&gt;Search Team&lt;/font&gt;" style="text;html=1;strokeColor=none;fillColor=none;align=center;verticalAlign=middle;whiteSpace=wrap;rounded=0;dashed=1;" vertex="1" parent="1">
                    <mxGeometry x="205" y="222" width="150" height="20" as="geometry"/>
                </mxCell>
                <mxCell id="156" value="" style="rounded=0;whiteSpace=wrap;html=1;strokeWidth=4;fillColor=none;" vertex="1" parent="1">
                    <mxGeometry x="440" y="250" width="160" height="1190" as="geometry"/>
                </mxCell>
                <mxCell id="157" value="" style="shape=actor;whiteSpace=wrap;html=1;" vertex="1" parent="1">
                    <mxGeometry x="480" y="280" width="80" height="120" as="geometry"/>
                </mxCell>
                <mxCell id="158" value="" style="shape=actor;whiteSpace=wrap;html=1;" vertex="1" parent="1">
                    <mxGeometry x="480" y="480" width="80" height="120" as="geometry"/>
                </mxCell>
                <mxCell id="159" value="" style="shape=actor;whiteSpace=wrap;html=1;" vertex="1" parent="1">
                    <mxGeometry x="480" y="680" width="80" height="120" as="geometry"/>
                </mxCell>
                <mxCell id="160" value="&lt;font style=&quot;font-size: 24px&quot;&gt;Product&amp;nbsp;&lt;/font&gt;&lt;span style=&quot;font-size: 24px&quot;&gt;Team&lt;/span&gt;" style="text;html=1;strokeColor=none;fillColor=none;align=center;verticalAlign=middle;whiteSpace=wrap;rounded=0;dashed=1;" vertex="1" parent="1">
                    <mxGeometry x="442.5" y="222" width="155" height="20" as="geometry"/>
                </mxCell>
                <mxCell id="161" value="" style="rounded=0;whiteSpace=wrap;html=1;strokeWidth=4;fillColor=none;" vertex="1" parent="1">
                    <mxGeometry x="680" y="250" width="160" height="1190" as="geometry"/>
                </mxCell>
                <mxCell id="162" value="" style="shape=actor;whiteSpace=wrap;html=1;" vertex="1" parent="1">
                    <mxGeometry x="720" y="280" width="80" height="120" as="geometry"/>
                </mxCell>
                <mxCell id="163" value="" style="shape=actor;whiteSpace=wrap;html=1;" vertex="1" parent="1">
                    <mxGeometry x="720" y="480" width="80" height="120" as="geometry"/>
                </mxCell>
                <mxCell id="164" value="" style="shape=actor;whiteSpace=wrap;html=1;" vertex="1" parent="1">
                    <mxGeometry x="720" y="680" width="80" height="120" as="geometry"/>
                </mxCell>
                <mxCell id="165" value="&lt;font style=&quot;font-size: 24px&quot;&gt;Inspire&amp;nbsp;&lt;/font&gt;&lt;span style=&quot;font-size: 24px&quot;&gt;Team&lt;/span&gt;" style="text;html=1;strokeColor=none;fillColor=none;align=center;verticalAlign=middle;whiteSpace=wrap;rounded=0;dashed=1;" vertex="1" parent="1">
                    <mxGeometry x="682.5" y="222" width="155" height="20" as="geometry"/>
                </mxCell>
                <mxCell id="169" value="&lt;font style=&quot;font-size: 28px&quot;&gt;Frontend&lt;br&gt;Engineer&lt;br&gt;&lt;/font&gt;" style="text;html=1;strokeColor=none;fillColor=none;align=center;verticalAlign=middle;whiteSpace=wrap;rounded=0;dashed=1;" vertex="1" parent="1">
                    <mxGeometry x="50" y="500" width="110" height="50" as="geometry"/>
                </mxCell>
                <mxCell id="170" value="&lt;font style=&quot;font-size: 28px&quot;&gt;Backend&lt;br&gt;Engineer&lt;br&gt;&lt;/font&gt;" style="text;html=1;strokeColor=none;fillColor=none;align=center;verticalAlign=middle;whiteSpace=wrap;rounded=0;dashed=1;" vertex="1" parent="1">
                    <mxGeometry x="50" y="700" width="110" height="50" as="geometry"/>
                </mxCell>
                <mxCell id="171" value="&lt;font style=&quot;font-size: 28px&quot;&gt;Data Scientist&lt;/font&gt;" style="text;html=1;strokeColor=none;fillColor=none;align=center;verticalAlign=middle;whiteSpace=wrap;rounded=0;dashed=1;" vertex="1" parent="1">
                    <mxGeometry x="50" y="900" width="110" height="50" as="geometry"/>
                </mxCell>
                <mxCell id="172" value="" style="shape=actor;whiteSpace=wrap;html=1;" vertex="1" parent="1">
                    <mxGeometry x="240" y="880" width="80" height="120" as="geometry"/>
                </mxCell>
                <mxCell id="173" value="" style="shape=actor;whiteSpace=wrap;html=1;" vertex="1" parent="1">
                    <mxGeometry x="480" y="880" width="80" height="120" as="geometry"/>
                </mxCell>
                <mxCell id="174" value="" style="shape=actor;whiteSpace=wrap;html=1;" vertex="1" parent="1">
                    <mxGeometry x="720" y="880" width="80" height="120" as="geometry"/>
                </mxCell>
                <mxCell id="176" value="&lt;font style=&quot;font-size: 28px&quot;&gt;UI/UX&lt;br&gt;Designer&lt;br&gt;&lt;/font&gt;" style="text;html=1;strokeColor=none;fillColor=none;align=center;verticalAlign=middle;whiteSpace=wrap;rounded=0;dashed=1;" vertex="1" parent="1">
                    <mxGeometry x="50" y="300" width="110" height="50" as="geometry"/>
                </mxCell>
                <mxCell id="177" value="" style="shape=actor;whiteSpace=wrap;html=1;" vertex="1" parent="1">
                    <mxGeometry x="240" y="1080" width="80" height="120" as="geometry"/>
                </mxCell>
                <mxCell id="178" value="" style="shape=actor;whiteSpace=wrap;html=1;" vertex="1" parent="1">
                    <mxGeometry x="480" y="1080" width="80" height="120" as="geometry"/>
                </mxCell>
                <mxCell id="179" value="" style="shape=actor;whiteSpace=wrap;html=1;" vertex="1" parent="1">
                    <mxGeometry x="720" y="1080" width="80" height="120" as="geometry"/>
                </mxCell>
                <mxCell id="181" value="&lt;font&gt;&lt;span style=&quot;font-size: 28px&quot;&gt;Data&lt;/span&gt;&lt;br&gt;&lt;span style=&quot;font-size: 28px&quot;&gt;Engineer&lt;/span&gt;&lt;br&gt;&lt;/font&gt;" style="text;html=1;strokeColor=none;fillColor=none;align=center;verticalAlign=middle;whiteSpace=wrap;rounded=0;dashed=1;" vertex="1" parent="1">
                    <mxGeometry x="50" y="1100" width="110" height="50" as="geometry"/>
                </mxCell>
                <mxCell id="183" value="" style="shape=actor;whiteSpace=wrap;html=1;" vertex="1" parent="1">
                    <mxGeometry x="240" y="1280" width="80" height="120" as="geometry"/>
                </mxCell>
                <mxCell id="184" value="" style="shape=actor;whiteSpace=wrap;html=1;" vertex="1" parent="1">
                    <mxGeometry x="480" y="1280" width="80" height="120" as="geometry"/>
                </mxCell>
                <mxCell id="185" value="" style="shape=actor;whiteSpace=wrap;html=1;" vertex="1" parent="1">
                    <mxGeometry x="720" y="1280" width="80" height="120" as="geometry"/>
                </mxCell>
                <mxCell id="187" value="&lt;font style=&quot;font-size: 28px&quot;&gt;&lt;span style=&quot;font-size: 28px&quot;&gt;Infra&lt;br&gt;&lt;/span&gt;Engineer&lt;br&gt;&lt;/font&gt;" style="text;html=1;strokeColor=none;fillColor=none;align=center;verticalAlign=middle;whiteSpace=wrap;rounded=0;dashed=1;" vertex="1" parent="1">
                    <mxGeometry x="50" y="1315" width="110" height="50" as="geometry"/>
                </mxCell>
            </root>
        </mxGraphModel>
    </diagram>
</mxfile>